<mxfile host="www.draw.io" modified="2019-12-23T10:47:33.730Z" agent="Mozilla/5.0 (Windows NT 6.1; Win64; x64) AppleWebKit/537.36 (KHTML, like Gecko) Chrome/79.0.3945.88 Safari/537.36" etag="V4naDfn1Syvje2EvyOA2" version="12.4.3" type="github" pages="1">
  <diagram id="5QiOQKNCq6tEFeVftK_o" name="第 1 页">
    <mxGraphModel dx="2013" dy="872" grid="1" gridSize="10" guides="1" tooltips="1" connect="1" arrows="1" fold="1" page="1" pageScale="1" pageWidth="1400" pageHeight="850" math="0" shadow="0">
      <root>
        <mxCell id="0"/>
        <mxCell id="1" parent="0"/>
        <mxCell id="8ZZjffh4FhQhodE5l19A-6" style="edgeStyle=orthogonalEdgeStyle;orthogonalLoop=1;jettySize=auto;html=1;exitX=1;exitY=0.5;exitDx=0;exitDy=0;curved=1;" parent="1" source="8ZZjffh4FhQhodE5l19A-4" target="8ZZjffh4FhQhodE5l19A-5" edge="1">
          <mxGeometry relative="1" as="geometry"/>
        </mxCell>
        <mxCell id="8ZZjffh4FhQhodE5l19A-26" value="微信" style="swimlane;html=1;startSize=20;horizontal=1;containerType=tree;" parent="1" vertex="1">
          <mxGeometry x="450" y="70" width="190" height="540" as="geometry"/>
        </mxCell>
        <mxCell id="8ZZjffh4FhQhodE5l19A-4" value="微信授权" style="rounded=0;whiteSpace=wrap;html=1;" parent="8ZZjffh4FhQhodE5l19A-26" vertex="1">
          <mxGeometry x="40" y="70" width="120" height="60" as="geometry"/>
        </mxCell>
        <mxCell id="8ZZjffh4FhQhodE5l19A-27" value="鉴权中心" style="swimlane;html=1;startSize=20;horizontal=1;containerType=tree;" parent="1" vertex="1">
          <mxGeometry x="680" y="70" width="200" height="540" as="geometry"/>
        </mxCell>
        <mxCell id="8ZZjffh4FhQhodE5l19A-5" value="解析code" style="rounded=0;whiteSpace=wrap;html=1;" parent="8ZZjffh4FhQhodE5l19A-27" vertex="1">
          <mxGeometry x="40" y="70" width="120" height="60" as="geometry"/>
        </mxCell>
        <mxCell id="8ZZjffh4FhQhodE5l19A-11" value="获取openid等用户信息" style="rounded=0;whiteSpace=wrap;html=1;" parent="8ZZjffh4FhQhodE5l19A-27" vertex="1">
          <mxGeometry x="40" y="210" width="120" height="60" as="geometry"/>
        </mxCell>
        <mxCell id="8ZZjffh4FhQhodE5l19A-12" value="" style="edgeStyle=orthogonalEdgeStyle;orthogonalLoop=1;jettySize=auto;html=1;curved=1;" parent="8ZZjffh4FhQhodE5l19A-27" source="8ZZjffh4FhQhodE5l19A-5" target="8ZZjffh4FhQhodE5l19A-11" edge="1">
          <mxGeometry relative="1" as="geometry"/>
        </mxCell>
        <mxCell id="8ZZjffh4FhQhodE5l19A-33" value="用户服务" style="swimlane;html=1;startSize=20;horizontal=1;containerType=tree;" parent="1" vertex="1">
          <mxGeometry x="920" y="70" width="450" height="540" as="geometry"/>
        </mxCell>
        <mxCell id="8ZZjffh4FhQhodE5l19A-10" value="通过openId或unionid调用user服务的新增或更新服务" style="rounded=0;whiteSpace=wrap;html=1;" parent="8ZZjffh4FhQhodE5l19A-33" vertex="1">
          <mxGeometry x="60" y="30" width="120" height="60" as="geometry"/>
        </mxCell>
        <mxCell id="8ZZjffh4FhQhodE5l19A-17" value="判断user_account是否有头像" style="rhombus;whiteSpace=wrap;html=1;fillColor=#dae8fc;strokeColor=#6c8ebf;" parent="8ZZjffh4FhQhodE5l19A-33" vertex="1">
          <mxGeometry x="80" y="140" width="80" height="80" as="geometry"/>
        </mxCell>
        <mxCell id="8ZZjffh4FhQhodE5l19A-18" value="" style="edgeStyle=orthogonalEdgeStyle;orthogonalLoop=1;jettySize=auto;html=1;curved=1;" parent="8ZZjffh4FhQhodE5l19A-33" source="8ZZjffh4FhQhodE5l19A-10" target="8ZZjffh4FhQhodE5l19A-17" edge="1">
          <mxGeometry relative="1" as="geometry">
            <mxPoint x="470" y="150" as="sourcePoint"/>
            <mxPoint x="470" y="230" as="targetPoint"/>
          </mxGeometry>
        </mxCell>
        <mxCell id="8ZZjffh4FhQhodE5l19A-19" value="外域URL更新策略" style="rounded=0;whiteSpace=wrap;html=1;fillColor=#d5e8d4;strokeColor=#82b366;" parent="8ZZjffh4FhQhodE5l19A-33" vertex="1">
          <mxGeometry x="290" y="150" width="120" height="60" as="geometry"/>
        </mxCell>
        <mxCell id="8ZZjffh4FhQhodE5l19A-20" value="否" style="edgeStyle=orthogonalEdgeStyle;orthogonalLoop=1;jettySize=auto;html=1;exitX=1;exitY=0.5;exitDx=0;exitDy=0;entryX=0;entryY=0.5;entryDx=0;entryDy=0;curved=1;" parent="8ZZjffh4FhQhodE5l19A-33" source="8ZZjffh4FhQhodE5l19A-17" target="8ZZjffh4FhQhodE5l19A-19" edge="1">
          <mxGeometry relative="1" as="geometry">
            <mxPoint x="580" y="340" as="targetPoint"/>
          </mxGeometry>
        </mxCell>
        <mxCell id="3Gr7L3NR13XdELTnvV_C-3" value="是" style="edgeStyle=orthogonalEdgeStyle;orthogonalLoop=1;jettySize=auto;html=1;curved=1;" edge="1" target="3Gr7L3NR13XdELTnvV_C-4" source="8ZZjffh4FhQhodE5l19A-17" parent="8ZZjffh4FhQhodE5l19A-33">
          <mxGeometry relative="1" as="geometry">
            <mxPoint x="1390" y="120" as="sourcePoint"/>
            <mxPoint x="470" y="230" as="targetPoint"/>
          </mxGeometry>
        </mxCell>
        <mxCell id="3Gr7L3NR13XdELTnvV_C-5" value="是" style="edgeStyle=orthogonalEdgeStyle;orthogonalLoop=1;jettySize=auto;html=1;exitX=1;exitY=0.5;exitDx=0;exitDy=0;entryX=0;entryY=1;entryDx=0;entryDy=0;curved=1;" edge="1" parent="8ZZjffh4FhQhodE5l19A-33" source="3Gr7L3NR13XdELTnvV_C-4" target="8ZZjffh4FhQhodE5l19A-19">
          <mxGeometry x="-0.2381" y="10" relative="1" as="geometry">
            <mxPoint as="offset"/>
          </mxGeometry>
        </mxCell>
        <mxCell id="3Gr7L3NR13XdELTnvV_C-4" value="是否为默认头像" style="rhombus;whiteSpace=wrap;html=1;fillColor=#dae8fc;strokeColor=#6c8ebf;" vertex="1" parent="8ZZjffh4FhQhodE5l19A-33">
          <mxGeometry x="80" y="240" width="80" height="80" as="geometry"/>
        </mxCell>
        <mxCell id="3Gr7L3NR13XdELTnvV_C-8" value="否" style="edgeStyle=orthogonalEdgeStyle;curved=1;orthogonalLoop=1;jettySize=auto;html=1;exitX=1;exitY=0;exitDx=0;exitDy=0;entryX=0.25;entryY=1;entryDx=0;entryDy=0;" edge="1" parent="8ZZjffh4FhQhodE5l19A-33" source="3Gr7L3NR13XdELTnvV_C-7" target="8ZZjffh4FhQhodE5l19A-19">
          <mxGeometry x="-0.2432" y="50" relative="1" as="geometry">
            <mxPoint as="offset"/>
          </mxGeometry>
        </mxCell>
        <mxCell id="3Gr7L3NR13XdELTnvV_C-7" value="是否为头像指定域" style="rhombus;whiteSpace=wrap;html=1;fillColor=#dae8fc;strokeColor=#6c8ebf;" vertex="1" parent="8ZZjffh4FhQhodE5l19A-33">
          <mxGeometry x="80" y="450" width="80" height="80" as="geometry"/>
        </mxCell>
        <mxCell id="3Gr7L3NR13XdELTnvV_C-9" value="" style="edgeStyle=orthogonalEdgeStyle;orthogonalLoop=1;jettySize=auto;html=1;curved=1;exitX=1;exitY=0.5;exitDx=0;exitDy=0;" edge="1" target="3Gr7L3NR13XdELTnvV_C-10" source="3Gr7L3NR13XdELTnvV_C-7" parent="8ZZjffh4FhQhodE5l19A-33">
          <mxGeometry relative="1" as="geometry">
            <mxPoint x="1390" y="410" as="sourcePoint"/>
            <mxPoint x="470" y="300" as="targetPoint"/>
          </mxGeometry>
        </mxCell>
        <mxCell id="3Gr7L3NR13XdELTnvV_C-10" value="域是否为微信头像域" style="rhombus;whiteSpace=wrap;html=1;fillColor=#dae8fc;strokeColor=#6c8ebf;" vertex="1" parent="8ZZjffh4FhQhodE5l19A-33">
          <mxGeometry x="205" y="450" width="80" height="80" as="geometry"/>
        </mxCell>
        <mxCell id="3Gr7L3NR13XdELTnvV_C-36" value="是" style="edgeStyle=orthogonalEdgeStyle;curved=1;orthogonalLoop=1;jettySize=auto;html=1;exitX=0.5;exitY=0;exitDx=0;exitDy=0;entryX=0.75;entryY=1;entryDx=0;entryDy=0;" edge="1" parent="8ZZjffh4FhQhodE5l19A-33" source="3Gr7L3NR13XdELTnvV_C-34" target="8ZZjffh4FhQhodE5l19A-19">
          <mxGeometry relative="1" as="geometry"/>
        </mxCell>
        <mxCell id="3Gr7L3NR13XdELTnvV_C-34" value="头像上传是否超过30天" style="rhombus;whiteSpace=wrap;html=1;fillColor=#dae8fc;strokeColor=#6c8ebf;" vertex="1" parent="8ZZjffh4FhQhodE5l19A-33">
          <mxGeometry x="340" y="450" width="80" height="80" as="geometry"/>
        </mxCell>
        <mxCell id="3Gr7L3NR13XdELTnvV_C-35" value="是" style="edgeStyle=orthogonalEdgeStyle;orthogonalLoop=1;jettySize=auto;html=1;curved=1;exitX=1;exitY=0.5;exitDx=0;exitDy=0;" edge="1" parent="8ZZjffh4FhQhodE5l19A-33" source="3Gr7L3NR13XdELTnvV_C-10" target="3Gr7L3NR13XdELTnvV_C-34">
          <mxGeometry relative="1" as="geometry">
            <mxPoint x="470" y="410" as="sourcePoint"/>
            <mxPoint x="490" y="410" as="targetPoint"/>
          </mxGeometry>
        </mxCell>
        <mxCell id="3Gr7L3NR13XdELTnvV_C-149" style="edgeStyle=orthogonalEdgeStyle;curved=1;orthogonalLoop=1;jettySize=auto;html=1;exitX=0.5;exitY=1;exitDx=0;exitDy=0;entryX=0.5;entryY=0;entryDx=0;entryDy=0;" edge="1" parent="8ZZjffh4FhQhodE5l19A-33" source="3Gr7L3NR13XdELTnvV_C-146" target="3Gr7L3NR13XdELTnvV_C-7">
          <mxGeometry relative="1" as="geometry"/>
        </mxCell>
        <mxCell id="3Gr7L3NR13XdELTnvV_C-146" value="判断是否有正处理中的上传" style="rhombus;whiteSpace=wrap;html=1;fillColor=#dae8fc;strokeColor=#6c8ebf;" vertex="1" parent="8ZZjffh4FhQhodE5l19A-33">
          <mxGeometry x="80" y="350" width="80" height="80" as="geometry"/>
        </mxCell>
        <mxCell id="3Gr7L3NR13XdELTnvV_C-148" value="否" style="edgeStyle=orthogonalEdgeStyle;orthogonalLoop=1;jettySize=auto;html=1;curved=1;" edge="1" parent="8ZZjffh4FhQhodE5l19A-33" source="3Gr7L3NR13XdELTnvV_C-4" target="3Gr7L3NR13XdELTnvV_C-146">
          <mxGeometry relative="1" as="geometry">
            <mxPoint x="1039.9999999999995" y="399.9999999999998" as="sourcePoint"/>
            <mxPoint x="1039.9999999999995" y="460" as="targetPoint"/>
          </mxGeometry>
        </mxCell>
        <mxCell id="8ZZjffh4FhQhodE5l19A-13" style="edgeStyle=orthogonalEdgeStyle;orthogonalLoop=1;jettySize=auto;html=1;exitX=1;exitY=0.5;exitDx=0;exitDy=0;curved=1;entryX=0;entryY=0.5;entryDx=0;entryDy=0;" parent="1" source="8ZZjffh4FhQhodE5l19A-11" target="8ZZjffh4FhQhodE5l19A-10" edge="1">
          <mxGeometry relative="1" as="geometry"/>
        </mxCell>
        <mxCell id="8ZZjffh4FhQhodE5l19A-45" value="用户服务" style="swimlane;html=1;startSize=20;horizontal=1;containerType=tree;" parent="1" vertex="1">
          <mxGeometry x="450" y="630" width="350" height="680" as="geometry"/>
        </mxCell>
        <mxCell id="8ZZjffh4FhQhodE5l19A-64" value="Loop" style="shape=umlFrame;whiteSpace=wrap;html=1;dashed=1;" parent="8ZZjffh4FhQhodE5l19A-45" vertex="1">
          <mxGeometry x="30" y="160" width="290" height="500" as="geometry"/>
        </mxCell>
        <mxCell id="8ZZjffh4FhQhodE5l19A-50" style="edgeStyle=orthogonalEdgeStyle;curved=1;orthogonalLoop=1;jettySize=auto;html=1;exitX=0.5;exitY=1;exitDx=0;exitDy=0;entryX=0.5;entryY=0;entryDx=0;entryDy=0;" parent="8ZZjffh4FhQhodE5l19A-45" source="8ZZjffh4FhQhodE5l19A-46" target="8ZZjffh4FhQhodE5l19A-47" edge="1">
          <mxGeometry relative="1" as="geometry"/>
        </mxCell>
        <mxCell id="8ZZjffh4FhQhodE5l19A-46" value="获取历史数据" style="rounded=0;whiteSpace=wrap;html=1;fillColor=#d5e8d4;strokeColor=#82b366;" parent="8ZZjffh4FhQhodE5l19A-45" vertex="1">
          <mxGeometry x="110" y="60" width="120" height="60" as="geometry"/>
        </mxCell>
        <mxCell id="8ZZjffh4FhQhodE5l19A-49" style="edgeStyle=orthogonalEdgeStyle;curved=1;orthogonalLoop=1;jettySize=auto;html=1;exitX=0.5;exitY=1;exitDx=0;exitDy=0;entryX=0.5;entryY=0;entryDx=0;entryDy=0;" parent="8ZZjffh4FhQhodE5l19A-45" source="8ZZjffh4FhQhodE5l19A-47" target="8ZZjffh4FhQhodE5l19A-48" edge="1">
          <mxGeometry relative="1" as="geometry"/>
        </mxCell>
        <mxCell id="8ZZjffh4FhQhodE5l19A-47" value="访问user_info服务微信头像地址" style="rounded=0;whiteSpace=wrap;html=1;" parent="8ZZjffh4FhQhodE5l19A-45" vertex="1">
          <mxGeometry x="110" y="180" width="120" height="60" as="geometry"/>
        </mxCell>
        <mxCell id="8ZZjffh4FhQhodE5l19A-75" value="是" style="edgeStyle=orthogonalEdgeStyle;curved=1;orthogonalLoop=1;jettySize=auto;html=1;exitX=0.5;exitY=1;exitDx=0;exitDy=0;entryX=0.5;entryY=0;entryDx=0;entryDy=0;" parent="8ZZjffh4FhQhodE5l19A-45" source="8ZZjffh4FhQhodE5l19A-48" target="8ZZjffh4FhQhodE5l19A-74" edge="1">
          <mxGeometry relative="1" as="geometry"/>
        </mxCell>
        <mxCell id="8ZZjffh4FhQhodE5l19A-48" value="是否过期" style="rhombus;whiteSpace=wrap;html=1;" parent="8ZZjffh4FhQhodE5l19A-45" vertex="1">
          <mxGeometry x="130" y="270" width="80" height="80" as="geometry"/>
        </mxCell>
        <mxCell id="8ZZjffh4FhQhodE5l19A-78" value="是" style="edgeStyle=orthogonalEdgeStyle;curved=1;orthogonalLoop=1;jettySize=auto;html=1;exitX=0;exitY=0.5;exitDx=0;exitDy=0;" parent="8ZZjffh4FhQhodE5l19A-45" source="8ZZjffh4FhQhodE5l19A-71" target="8ZZjffh4FhQhodE5l19A-77" edge="1">
          <mxGeometry relative="1" as="geometry"/>
        </mxCell>
        <mxCell id="8ZZjffh4FhQhodE5l19A-71" value="&lt;span style=&quot;white-space: normal&quot;&gt;是否过期&lt;/span&gt;" style="rhombus;whiteSpace=wrap;html=1;" parent="8ZZjffh4FhQhodE5l19A-45" vertex="1">
          <mxGeometry x="130" y="480" width="80" height="80" as="geometry"/>
        </mxCell>
        <mxCell id="8ZZjffh4FhQhodE5l19A-76" style="edgeStyle=orthogonalEdgeStyle;curved=1;orthogonalLoop=1;jettySize=auto;html=1;exitX=0.5;exitY=1;exitDx=0;exitDy=0;entryX=0.5;entryY=0;entryDx=0;entryDy=0;" parent="8ZZjffh4FhQhodE5l19A-45" source="8ZZjffh4FhQhodE5l19A-74" target="8ZZjffh4FhQhodE5l19A-71" edge="1">
          <mxGeometry relative="1" as="geometry"/>
        </mxCell>
        <mxCell id="8ZZjffh4FhQhodE5l19A-74" value="访问wechat_info服务的微信头像地址" style="rounded=0;whiteSpace=wrap;html=1;" parent="8ZZjffh4FhQhodE5l19A-45" vertex="1">
          <mxGeometry x="110" y="390" width="120" height="60" as="geometry"/>
        </mxCell>
        <mxCell id="8ZZjffh4FhQhodE5l19A-77" value="给予默认头像" style="rounded=0;whiteSpace=wrap;html=1;" parent="8ZZjffh4FhQhodE5l19A-45" vertex="1">
          <mxGeometry x="40" y="580" width="120" height="60" as="geometry"/>
        </mxCell>
        <mxCell id="8ZZjffh4FhQhodE5l19A-80" value="外域URL更新策略" style="rounded=0;whiteSpace=wrap;html=1;fillColor=#d5e8d4;strokeColor=#82b366;" parent="8ZZjffh4FhQhodE5l19A-45" vertex="1">
          <mxGeometry x="180" y="580" width="120" height="60" as="geometry"/>
        </mxCell>
        <mxCell id="8ZZjffh4FhQhodE5l19A-79" value="否" style="edgeStyle=orthogonalEdgeStyle;curved=1;orthogonalLoop=1;jettySize=auto;html=1;exitX=1;exitY=0.5;exitDx=0;exitDy=0;" parent="8ZZjffh4FhQhodE5l19A-45" source="8ZZjffh4FhQhodE5l19A-71" target="8ZZjffh4FhQhodE5l19A-80" edge="1">
          <mxGeometry relative="1" as="geometry"/>
        </mxCell>
        <mxCell id="8ZZjffh4FhQhodE5l19A-86" style="edgeStyle=orthogonalEdgeStyle;curved=1;orthogonalLoop=1;jettySize=auto;html=1;exitX=1;exitY=0.5;exitDx=0;exitDy=0;entryX=0;entryY=0.5;entryDx=0;entryDy=0;" parent="1" source="8ZZjffh4FhQhodE5l19A-82" target="8ZZjffh4FhQhodE5l19A-83" edge="1">
          <mxGeometry relative="1" as="geometry"/>
        </mxCell>
        <mxCell id="8ZZjffh4FhQhodE5l19A-99" value="需要保存文件信息的服务" style="swimlane;html=1;startSize=20;horizontal=1;containerType=tree;" parent="1" vertex="1">
          <mxGeometry x="1115" y="640" width="220" height="270" as="geometry"/>
        </mxCell>
        <mxCell id="8ZZjffh4FhQhodE5l19A-82" value="调用图片上传" style="rounded=0;whiteSpace=wrap;html=1;" parent="8ZZjffh4FhQhodE5l19A-99" vertex="1">
          <mxGeometry x="50" y="60" width="120" height="60" as="geometry"/>
        </mxCell>
        <mxCell id="8ZZjffh4FhQhodE5l19A-100" value="OSS服务" style="swimlane;html=1;startSize=20;horizontal=1;containerType=tree;" parent="1" vertex="1">
          <mxGeometry x="1375" y="640" width="220" height="270" as="geometry"/>
        </mxCell>
        <mxCell id="8ZZjffh4FhQhodE5l19A-83" value="上传头像流至&lt;br&gt;temp空间" style="rounded=0;whiteSpace=wrap;html=1;" parent="8ZZjffh4FhQhodE5l19A-100" vertex="1">
          <mxGeometry x="50" y="60" width="120" height="60" as="geometry"/>
        </mxCell>
        <mxCell id="8ZZjffh4FhQhodE5l19A-103" value="temp域文件清除" style="rounded=0;whiteSpace=wrap;html=1;fillColor=#d5e8d4;strokeColor=#82b366;" parent="8ZZjffh4FhQhodE5l19A-100" vertex="1">
          <mxGeometry x="50" y="160" width="120" height="60" as="geometry"/>
        </mxCell>
        <mxCell id="8ZZjffh4FhQhodE5l19A-101" value="定时任务" style="swimlane;html=1;startSize=20;horizontal=1;containerType=tree;" parent="1" vertex="1">
          <mxGeometry x="1625" y="640" width="220" height="270" as="geometry"/>
        </mxCell>
        <mxCell id="8ZZjffh4FhQhodE5l19A-98" value="定期清理temp域数据" style="rounded=0;whiteSpace=wrap;html=1;fillColor=#d5e8d4;strokeColor=#82b366;" parent="8ZZjffh4FhQhodE5l19A-101" vertex="1">
          <mxGeometry x="50" y="160" width="120" height="60" as="geometry"/>
        </mxCell>
        <mxCell id="8ZZjffh4FhQhodE5l19A-104" style="edgeStyle=orthogonalEdgeStyle;curved=1;orthogonalLoop=1;jettySize=auto;html=1;exitX=0;exitY=0.5;exitDx=0;exitDy=0;entryX=1;entryY=0.5;entryDx=0;entryDy=0;" parent="1" source="8ZZjffh4FhQhodE5l19A-98" target="8ZZjffh4FhQhodE5l19A-103" edge="1">
          <mxGeometry relative="1" as="geometry"/>
        </mxCell>
        <mxCell id="8ZZjffh4FhQhodE5l19A-118" value="write" style="edgeStyle=orthogonalEdgeStyle;curved=1;orthogonalLoop=1;jettySize=auto;html=1;entryX=0.25;entryY=0;entryDx=0;entryDy=0;exitX=0.75;exitY=1;exitDx=0;exitDy=0;" parent="1" source="8ZZjffh4FhQhodE5l19A-105" target="8ZZjffh4FhQhodE5l19A-117" edge="1">
          <mxGeometry relative="1" as="geometry">
            <mxPoint x="1671" y="1420" as="sourcePoint"/>
          </mxGeometry>
        </mxCell>
        <mxCell id="8ZZjffh4FhQhodE5l19A-105" value="Response-Input" style="rounded=0;whiteSpace=wrap;html=1;" parent="1" vertex="1">
          <mxGeometry x="1560" y="1370" width="120" height="60" as="geometry"/>
        </mxCell>
        <mxCell id="8ZZjffh4FhQhodE5l19A-127" value="write" style="edgeStyle=orthogonalEdgeStyle;curved=1;orthogonalLoop=1;jettySize=auto;html=1;exitX=1;exitY=0.5;exitDx=0;exitDy=0;" parent="1" source="8ZZjffh4FhQhodE5l19A-108" target="8ZZjffh4FhQhodE5l19A-126" edge="1">
          <mxGeometry relative="1" as="geometry"/>
        </mxCell>
        <mxCell id="8ZZjffh4FhQhodE5l19A-108" value="Request-Output" style="rounded=0;whiteSpace=wrap;html=1;" parent="1" vertex="1">
          <mxGeometry x="2280" y="1370" width="120" height="60" as="geometry"/>
        </mxCell>
        <mxCell id="8ZZjffh4FhQhodE5l19A-110" value="管道连接" style="swimlane;html=1;startSize=20;horizontal=1;containerType=tree;" parent="1" vertex="1">
          <mxGeometry x="1760" y="1310" width="440" height="160" as="geometry"/>
        </mxCell>
        <mxCell id="8ZZjffh4FhQhodE5l19A-107" value="PipedOutput" style="rounded=0;whiteSpace=wrap;html=1;" parent="8ZZjffh4FhQhodE5l19A-110" vertex="1">
          <mxGeometry x="279.97" y="60" width="120" height="60" as="geometry"/>
        </mxCell>
        <mxCell id="8ZZjffh4FhQhodE5l19A-106" value="PipedInput" style="rounded=0;whiteSpace=wrap;html=1;" parent="8ZZjffh4FhQhodE5l19A-110" vertex="1">
          <mxGeometry x="40.03" y="60" width="120" height="60" as="geometry"/>
        </mxCell>
        <mxCell id="8ZZjffh4FhQhodE5l19A-109" value="connection" style="edgeStyle=orthogonalEdgeStyle;curved=1;orthogonalLoop=1;jettySize=auto;html=1;exitX=0.5;exitY=0;exitDx=0;exitDy=0;entryX=0.5;entryY=0;entryDx=0;entryDy=0;" parent="8ZZjffh4FhQhodE5l19A-110" source="8ZZjffh4FhQhodE5l19A-106" target="8ZZjffh4FhQhodE5l19A-107" edge="1">
          <mxGeometry relative="1" as="geometry"/>
        </mxCell>
        <mxCell id="8ZZjffh4FhQhodE5l19A-116" value="read" style="edgeStyle=orthogonalEdgeStyle;curved=1;orthogonalLoop=1;jettySize=auto;html=1;exitX=0.5;exitY=0;exitDx=0;exitDy=0;entryX=0;entryY=0.5;entryDx=0;entryDy=0;" parent="1" source="8ZZjffh4FhQhodE5l19A-115" target="8ZZjffh4FhQhodE5l19A-105" edge="1">
          <mxGeometry relative="1" as="geometry"/>
        </mxCell>
        <mxCell id="8ZZjffh4FhQhodE5l19A-115" value="ResponseBody" style="rounded=0;whiteSpace=wrap;html=1;" parent="1" vertex="1">
          <mxGeometry x="1420" y="1580" width="120" height="60" as="geometry"/>
        </mxCell>
        <mxCell id="8ZZjffh4FhQhodE5l19A-119" value="read" style="edgeStyle=orthogonalEdgeStyle;curved=1;orthogonalLoop=1;jettySize=auto;html=1;exitX=0.75;exitY=0;exitDx=0;exitDy=0;entryX=0.25;entryY=1;entryDx=0;entryDy=0;" parent="1" source="8ZZjffh4FhQhodE5l19A-117" target="8ZZjffh4FhQhodE5l19A-106" edge="1">
          <mxGeometry relative="1" as="geometry"/>
        </mxCell>
        <mxCell id="8ZZjffh4FhQhodE5l19A-117" value="缓冲区" style="rounded=0;whiteSpace=wrap;html=1;" parent="1" vertex="1">
          <mxGeometry x="1690" y="1580" width="120" height="60" as="geometry"/>
        </mxCell>
        <mxCell id="8ZZjffh4FhQhodE5l19A-122" value="read" style="edgeStyle=orthogonalEdgeStyle;curved=1;orthogonalLoop=1;jettySize=auto;html=1;exitX=0.75;exitY=0;exitDx=0;exitDy=0;entryX=0.25;entryY=1;entryDx=0;entryDy=0;" parent="1" source="8ZZjffh4FhQhodE5l19A-120" target="8ZZjffh4FhQhodE5l19A-107" edge="1">
          <mxGeometry relative="1" as="geometry"/>
        </mxCell>
        <mxCell id="8ZZjffh4FhQhodE5l19A-120" value="缓冲区" style="rounded=0;whiteSpace=wrap;html=1;" parent="1" vertex="1">
          <mxGeometry x="1919.97" y="1580" width="120" height="60" as="geometry"/>
        </mxCell>
        <mxCell id="8ZZjffh4FhQhodE5l19A-121" value="write" style="edgeStyle=orthogonalEdgeStyle;curved=1;orthogonalLoop=1;jettySize=auto;html=1;exitX=0.75;exitY=1;exitDx=0;exitDy=0;entryX=0.25;entryY=0;entryDx=0;entryDy=0;" parent="1" source="8ZZjffh4FhQhodE5l19A-106" target="8ZZjffh4FhQhodE5l19A-120" edge="1">
          <mxGeometry relative="1" as="geometry"/>
        </mxCell>
        <mxCell id="8ZZjffh4FhQhodE5l19A-125" value="read" style="edgeStyle=orthogonalEdgeStyle;curved=1;orthogonalLoop=1;jettySize=auto;html=1;exitX=0.75;exitY=0;exitDx=0;exitDy=0;entryX=0.25;entryY=1;entryDx=0;entryDy=0;" parent="1" source="8ZZjffh4FhQhodE5l19A-123" target="8ZZjffh4FhQhodE5l19A-108" edge="1">
          <mxGeometry relative="1" as="geometry"/>
        </mxCell>
        <mxCell id="8ZZjffh4FhQhodE5l19A-123" value="缓冲区" style="rounded=0;whiteSpace=wrap;html=1;" parent="1" vertex="1">
          <mxGeometry x="2150" y="1580" width="120" height="60" as="geometry"/>
        </mxCell>
        <mxCell id="8ZZjffh4FhQhodE5l19A-124" value="write" style="edgeStyle=orthogonalEdgeStyle;curved=1;orthogonalLoop=1;jettySize=auto;html=1;exitX=0.75;exitY=1;exitDx=0;exitDy=0;entryX=0.25;entryY=0;entryDx=0;entryDy=0;" parent="1" source="8ZZjffh4FhQhodE5l19A-107" target="8ZZjffh4FhQhodE5l19A-123" edge="1">
          <mxGeometry relative="1" as="geometry"/>
        </mxCell>
        <mxCell id="8ZZjffh4FhQhodE5l19A-126" value="RequestBody" style="rounded=0;whiteSpace=wrap;html=1;" parent="1" vertex="1">
          <mxGeometry x="2450" y="1580" width="120" height="60" as="geometry"/>
        </mxCell>
        <mxCell id="8ZZjffh4FhQhodE5l19A-130" value="" style="shape=flexArrow;endArrow=classic;html=1;exitX=1;exitY=0.5;exitDx=0;exitDy=0;" parent="1" source="8ZZjffh4FhQhodE5l19A-105" target="8ZZjffh4FhQhodE5l19A-106" edge="1">
          <mxGeometry width="50" height="50" relative="1" as="geometry">
            <mxPoint x="1590" y="1310" as="sourcePoint"/>
            <mxPoint x="1640" y="1260" as="targetPoint"/>
          </mxGeometry>
        </mxCell>
        <mxCell id="8ZZjffh4FhQhodE5l19A-132" value="" style="shape=flexArrow;endArrow=classic;html=1;exitX=1;exitY=0.5;exitDx=0;exitDy=0;entryX=0;entryY=0.5;entryDx=0;entryDy=0;" parent="1" source="8ZZjffh4FhQhodE5l19A-107" target="8ZZjffh4FhQhodE5l19A-108" edge="1">
          <mxGeometry width="50" height="50" relative="1" as="geometry">
            <mxPoint x="1670" y="1260" as="sourcePoint"/>
            <mxPoint x="1790.0300000000002" y="1260" as="targetPoint"/>
          </mxGeometry>
        </mxCell>
        <mxCell id="8ZZjffh4FhQhodE5l19A-134" value="Response-Input" style="rounded=0;whiteSpace=wrap;html=1;" parent="1" vertex="1">
          <mxGeometry x="1565" y="1740" width="120" height="60" as="geometry"/>
        </mxCell>
        <mxCell id="8ZZjffh4FhQhodE5l19A-135" value="write" style="edgeStyle=orthogonalEdgeStyle;curved=1;orthogonalLoop=1;jettySize=auto;html=1;exitX=1;exitY=0.5;exitDx=0;exitDy=0;" parent="1" source="8ZZjffh4FhQhodE5l19A-136" target="8ZZjffh4FhQhodE5l19A-151" edge="1">
          <mxGeometry relative="1" as="geometry"/>
        </mxCell>
        <mxCell id="8ZZjffh4FhQhodE5l19A-136" value="Request-Output" style="rounded=0;whiteSpace=wrap;html=1;" parent="1" vertex="1">
          <mxGeometry x="2280" y="1740" width="120" height="60" as="geometry"/>
        </mxCell>
        <mxCell id="8ZZjffh4FhQhodE5l19A-137" value="管道连接" style="swimlane;html=1;startSize=20;horizontal=1;containerType=tree;" parent="1" vertex="1">
          <mxGeometry x="1759.97" y="1680" width="440" height="160" as="geometry"/>
        </mxCell>
        <mxCell id="8ZZjffh4FhQhodE5l19A-138" value="PipedOutput" style="rounded=0;whiteSpace=wrap;html=1;" parent="8ZZjffh4FhQhodE5l19A-137" vertex="1">
          <mxGeometry x="279.97" y="60" width="120" height="60" as="geometry"/>
        </mxCell>
        <mxCell id="8ZZjffh4FhQhodE5l19A-139" value="PipedInput" style="rounded=0;whiteSpace=wrap;html=1;" parent="8ZZjffh4FhQhodE5l19A-137" vertex="1">
          <mxGeometry x="40.03" y="60" width="120" height="60" as="geometry"/>
        </mxCell>
        <mxCell id="8ZZjffh4FhQhodE5l19A-140" value="connection" style="edgeStyle=orthogonalEdgeStyle;curved=1;orthogonalLoop=1;jettySize=auto;html=1;exitX=0.5;exitY=0;exitDx=0;exitDy=0;entryX=0.5;entryY=0;entryDx=0;entryDy=0;" parent="8ZZjffh4FhQhodE5l19A-137" source="8ZZjffh4FhQhodE5l19A-139" target="8ZZjffh4FhQhodE5l19A-138" edge="1">
          <mxGeometry relative="1" as="geometry"/>
        </mxCell>
        <mxCell id="8ZZjffh4FhQhodE5l19A-141" value="read" style="edgeStyle=orthogonalEdgeStyle;curved=1;orthogonalLoop=1;jettySize=auto;html=1;exitX=0.5;exitY=0;exitDx=0;exitDy=0;entryX=0;entryY=0.5;entryDx=0;entryDy=0;" parent="1" source="8ZZjffh4FhQhodE5l19A-142" target="8ZZjffh4FhQhodE5l19A-134" edge="1">
          <mxGeometry relative="1" as="geometry"/>
        </mxCell>
        <mxCell id="8ZZjffh4FhQhodE5l19A-142" value="ResponseBody" style="rounded=0;whiteSpace=wrap;html=1;" parent="1" vertex="1">
          <mxGeometry x="1440" y="1870" width="120" height="60" as="geometry"/>
        </mxCell>
        <mxCell id="8ZZjffh4FhQhodE5l19A-145" value="read" style="edgeStyle=orthogonalEdgeStyle;curved=1;orthogonalLoop=1;jettySize=auto;html=1;exitX=0.75;exitY=0;exitDx=0;exitDy=0;entryX=0.5;entryY=1;entryDx=0;entryDy=0;" parent="1" source="8ZZjffh4FhQhodE5l19A-146" target="8ZZjffh4FhQhodE5l19A-138" edge="1">
          <mxGeometry relative="1" as="geometry"/>
        </mxCell>
        <mxCell id="8ZZjffh4FhQhodE5l19A-146" value="缓冲区" style="rounded=0;whiteSpace=wrap;html=1;" parent="1" vertex="1">
          <mxGeometry x="1919.98" y="1870" width="120" height="60" as="geometry"/>
        </mxCell>
        <mxCell id="8ZZjffh4FhQhodE5l19A-147" value="write" style="edgeStyle=orthogonalEdgeStyle;curved=1;orthogonalLoop=1;jettySize=auto;html=1;exitX=0.5;exitY=1;exitDx=0;exitDy=0;entryX=0.25;entryY=0;entryDx=0;entryDy=0;" parent="1" source="8ZZjffh4FhQhodE5l19A-139" target="8ZZjffh4FhQhodE5l19A-146" edge="1">
          <mxGeometry relative="1" as="geometry"/>
        </mxCell>
        <mxCell id="8ZZjffh4FhQhodE5l19A-151" value="RequestBody" style="rounded=0;whiteSpace=wrap;html=1;" parent="1" vertex="1">
          <mxGeometry x="2400" y="1870" width="120" height="60" as="geometry"/>
        </mxCell>
        <mxCell id="8ZZjffh4FhQhodE5l19A-152" value="" style="shape=flexArrow;endArrow=classic;html=1;exitX=1;exitY=0.5;exitDx=0;exitDy=0;" parent="1" source="8ZZjffh4FhQhodE5l19A-134" target="8ZZjffh4FhQhodE5l19A-139" edge="1">
          <mxGeometry width="50" height="50" relative="1" as="geometry">
            <mxPoint x="1595" y="1680" as="sourcePoint"/>
            <mxPoint x="1645" y="1630" as="targetPoint"/>
          </mxGeometry>
        </mxCell>
        <mxCell id="8ZZjffh4FhQhodE5l19A-153" value="" style="shape=flexArrow;endArrow=classic;html=1;exitX=1;exitY=0.5;exitDx=0;exitDy=0;entryX=0;entryY=0.5;entryDx=0;entryDy=0;" parent="1" source="8ZZjffh4FhQhodE5l19A-138" target="8ZZjffh4FhQhodE5l19A-136" edge="1">
          <mxGeometry width="50" height="50" relative="1" as="geometry">
            <mxPoint x="1675" y="1630" as="sourcePoint"/>
            <mxPoint x="1795.0300000000002" y="1630" as="targetPoint"/>
          </mxGeometry>
        </mxCell>
        <mxCell id="8ZZjffh4FhQhodE5l19A-154" value="物理内存" style="rounded=0;whiteSpace=wrap;html=1;" parent="1" vertex="1">
          <mxGeometry x="1440" y="1990" width="120" height="60" as="geometry"/>
        </mxCell>
        <mxCell id="8ZZjffh4FhQhodE5l19A-155" value="&lt;span style=&quot;white-space: normal&quot;&gt;物理内存&lt;/span&gt;" style="rounded=0;whiteSpace=wrap;html=1;" parent="1" vertex="1">
          <mxGeometry x="1920.01" y="1990" width="120" height="60" as="geometry"/>
        </mxCell>
        <mxCell id="8ZZjffh4FhQhodE5l19A-156" value="&lt;span style=&quot;white-space: normal&quot;&gt;物理内存&lt;/span&gt;" style="rounded=0;whiteSpace=wrap;html=1;" parent="1" vertex="1">
          <mxGeometry x="2400" y="1990" width="120" height="60" as="geometry"/>
        </mxCell>
        <mxCell id="8ZZjffh4FhQhodE5l19A-158" value="" style="endArrow=classic;startArrow=classic;html=1;" parent="1" source="8ZZjffh4FhQhodE5l19A-155" target="8ZZjffh4FhQhodE5l19A-146" edge="1">
          <mxGeometry width="50" height="50" relative="1" as="geometry">
            <mxPoint x="1979.4199999999996" y="2030" as="sourcePoint"/>
            <mxPoint x="1979.4199999999996" y="1930" as="targetPoint"/>
          </mxGeometry>
        </mxCell>
        <mxCell id="8ZZjffh4FhQhodE5l19A-160" value="" style="endArrow=classic;startArrow=classic;html=1;entryX=0.5;entryY=1;entryDx=0;entryDy=0;" parent="1" source="8ZZjffh4FhQhodE5l19A-156" target="8ZZjffh4FhQhodE5l19A-151" edge="1">
          <mxGeometry width="50" height="50" relative="1" as="geometry">
            <mxPoint x="2289.434375" y="2050" as="sourcePoint"/>
            <mxPoint x="2289.4156249999996" y="1950" as="targetPoint"/>
          </mxGeometry>
        </mxCell>
        <mxCell id="8ZZjffh4FhQhodE5l19A-161" value="" style="endArrow=classic;startArrow=classic;html=1;entryX=0.5;entryY=1;entryDx=0;entryDy=0;exitX=0.5;exitY=0;exitDx=0;exitDy=0;" parent="1" source="8ZZjffh4FhQhodE5l19A-154" target="8ZZjffh4FhQhodE5l19A-142" edge="1">
          <mxGeometry width="50" height="50" relative="1" as="geometry">
            <mxPoint x="1665" y="2020" as="sourcePoint"/>
            <mxPoint x="1715" y="1970" as="targetPoint"/>
          </mxGeometry>
        </mxCell>
        <mxCell id="8ZZjffh4FhQhodE5l19A-204" value="Response-Input" style="rounded=0;whiteSpace=wrap;html=1;" parent="1" vertex="1">
          <mxGeometry x="1560" y="2220" width="120" height="60" as="geometry"/>
        </mxCell>
        <mxCell id="8ZZjffh4FhQhodE5l19A-205" value="write" style="edgeStyle=orthogonalEdgeStyle;curved=1;orthogonalLoop=1;jettySize=auto;html=1;exitX=1;exitY=0.5;exitDx=0;exitDy=0;" parent="1" source="8ZZjffh4FhQhodE5l19A-206" target="8ZZjffh4FhQhodE5l19A-216" edge="1">
          <mxGeometry relative="1" as="geometry"/>
        </mxCell>
        <mxCell id="8ZZjffh4FhQhodE5l19A-206" value="Request-Output" style="rounded=0;whiteSpace=wrap;html=1;" parent="1" vertex="1">
          <mxGeometry x="2280" y="2220" width="120" height="60" as="geometry"/>
        </mxCell>
        <mxCell id="8ZZjffh4FhQhodE5l19A-207" value="NIO管道连接" style="swimlane;html=1;startSize=20;horizontal=1;containerType=tree;" parent="1" vertex="1">
          <mxGeometry x="1760" y="2160" width="440" height="160" as="geometry"/>
        </mxCell>
        <mxCell id="8ZZjffh4FhQhodE5l19A-208" value="Channel" style="rounded=0;whiteSpace=wrap;html=1;" parent="8ZZjffh4FhQhodE5l19A-207" vertex="1">
          <mxGeometry x="279.97" y="60" width="120" height="60" as="geometry"/>
        </mxCell>
        <mxCell id="8ZZjffh4FhQhodE5l19A-209" value="Channel" style="rounded=0;whiteSpace=wrap;html=1;" parent="8ZZjffh4FhQhodE5l19A-207" vertex="1">
          <mxGeometry x="40" y="60" width="120" height="60" as="geometry"/>
        </mxCell>
        <mxCell id="8ZZjffh4FhQhodE5l19A-210" value="connection" style="edgeStyle=orthogonalEdgeStyle;curved=1;orthogonalLoop=1;jettySize=auto;html=1;exitX=0.5;exitY=0;exitDx=0;exitDy=0;entryX=0.5;entryY=0;entryDx=0;entryDy=0;" parent="8ZZjffh4FhQhodE5l19A-207" source="8ZZjffh4FhQhodE5l19A-209" target="8ZZjffh4FhQhodE5l19A-208" edge="1">
          <mxGeometry relative="1" as="geometry"/>
        </mxCell>
        <mxCell id="8ZZjffh4FhQhodE5l19A-211" value="read" style="edgeStyle=orthogonalEdgeStyle;curved=1;orthogonalLoop=1;jettySize=auto;html=1;exitX=0.5;exitY=0;exitDx=0;exitDy=0;entryX=0;entryY=0.5;entryDx=0;entryDy=0;" parent="1" source="8ZZjffh4FhQhodE5l19A-212" target="8ZZjffh4FhQhodE5l19A-204" edge="1">
          <mxGeometry relative="1" as="geometry"/>
        </mxCell>
        <mxCell id="8ZZjffh4FhQhodE5l19A-212" value="ResponseBody" style="rounded=0;whiteSpace=wrap;html=1;" parent="1" vertex="1">
          <mxGeometry x="1440" y="2380" width="120" height="60" as="geometry"/>
        </mxCell>
        <mxCell id="8ZZjffh4FhQhodE5l19A-213" value="transferTo" style="edgeStyle=orthogonalEdgeStyle;curved=1;orthogonalLoop=1;jettySize=auto;html=1;exitX=0.75;exitY=0;exitDx=0;exitDy=0;entryX=0.5;entryY=1;entryDx=0;entryDy=0;" parent="1" source="8ZZjffh4FhQhodE5l19A-214" target="8ZZjffh4FhQhodE5l19A-208" edge="1">
          <mxGeometry relative="1" as="geometry"/>
        </mxCell>
        <mxCell id="8ZZjffh4FhQhodE5l19A-214" value="缓冲区" style="rounded=0;whiteSpace=wrap;html=1;" parent="1" vertex="1">
          <mxGeometry x="1920" y="2380" width="120" height="60" as="geometry"/>
        </mxCell>
        <mxCell id="8ZZjffh4FhQhodE5l19A-215" value="transferFrom" style="edgeStyle=orthogonalEdgeStyle;curved=1;orthogonalLoop=1;jettySize=auto;html=1;exitX=0.5;exitY=1;exitDx=0;exitDy=0;entryX=0.25;entryY=0;entryDx=0;entryDy=0;" parent="1" source="8ZZjffh4FhQhodE5l19A-209" target="8ZZjffh4FhQhodE5l19A-214" edge="1">
          <mxGeometry relative="1" as="geometry"/>
        </mxCell>
        <mxCell id="8ZZjffh4FhQhodE5l19A-216" value="RequestBody" style="rounded=0;whiteSpace=wrap;html=1;" parent="1" vertex="1">
          <mxGeometry x="2400" y="2380" width="120" height="60" as="geometry"/>
        </mxCell>
        <mxCell id="8ZZjffh4FhQhodE5l19A-217" value="" style="shape=flexArrow;endArrow=classic;html=1;exitX=1;exitY=0.5;exitDx=0;exitDy=0;" parent="1" source="8ZZjffh4FhQhodE5l19A-204" target="8ZZjffh4FhQhodE5l19A-209" edge="1">
          <mxGeometry width="50" height="50" relative="1" as="geometry">
            <mxPoint x="1600" y="2160" as="sourcePoint"/>
            <mxPoint x="1650" y="2110" as="targetPoint"/>
          </mxGeometry>
        </mxCell>
        <mxCell id="8ZZjffh4FhQhodE5l19A-218" value="" style="shape=flexArrow;endArrow=classic;html=1;exitX=1;exitY=0.5;exitDx=0;exitDy=0;entryX=0;entryY=0.5;entryDx=0;entryDy=0;" parent="1" source="8ZZjffh4FhQhodE5l19A-208" target="8ZZjffh4FhQhodE5l19A-206" edge="1">
          <mxGeometry width="50" height="50" relative="1" as="geometry">
            <mxPoint x="1680" y="2110" as="sourcePoint"/>
            <mxPoint x="1800.0300000000002" y="2110" as="targetPoint"/>
          </mxGeometry>
        </mxCell>
        <mxCell id="8ZZjffh4FhQhodE5l19A-222" value="" style="endArrow=classic;startArrow=classic;html=1;exitX=0.5;exitY=0;exitDx=0;exitDy=0;dashed=1;" parent="1" source="8ZZjffh4FhQhodE5l19A-226" target="8ZZjffh4FhQhodE5l19A-214" edge="1">
          <mxGeometry width="50" height="50" relative="1" as="geometry">
            <mxPoint x="1989.9924999999998" y="2500" as="sourcePoint"/>
            <mxPoint x="1989.4099999999996" y="2440" as="targetPoint"/>
          </mxGeometry>
        </mxCell>
        <mxCell id="8ZZjffh4FhQhodE5l19A-223" value="" style="endArrow=classic;startArrow=classic;html=1;entryX=0.5;entryY=1;entryDx=0;entryDy=0;exitX=0.75;exitY=0;exitDx=0;exitDy=0;dashed=1;" parent="1" source="8ZZjffh4FhQhodE5l19A-226" target="8ZZjffh4FhQhodE5l19A-216" edge="1">
          <mxGeometry width="50" height="50" relative="1" as="geometry">
            <mxPoint x="2520" y="2500" as="sourcePoint"/>
            <mxPoint x="2349.4156249999996" y="2460" as="targetPoint"/>
          </mxGeometry>
        </mxCell>
        <mxCell id="8ZZjffh4FhQhodE5l19A-224" value="" style="endArrow=classic;startArrow=classic;html=1;entryX=0.5;entryY=1;entryDx=0;entryDy=0;exitX=0.25;exitY=0;exitDx=0;exitDy=0;dashed=1;" parent="1" source="8ZZjffh4FhQhodE5l19A-226" target="8ZZjffh4FhQhodE5l19A-212" edge="1">
          <mxGeometry width="50" height="50" relative="1" as="geometry">
            <mxPoint x="1489.9999999999995" y="2500" as="sourcePoint"/>
            <mxPoint x="1705" y="2480" as="targetPoint"/>
          </mxGeometry>
        </mxCell>
        <mxCell id="8ZZjffh4FhQhodE5l19A-226" value="物理内存" style="rounded=0;whiteSpace=wrap;html=1;" parent="1" vertex="1">
          <mxGeometry x="1440" y="2520" width="1080" height="60" as="geometry"/>
        </mxCell>
        <mxCell id="8ZZjffh4FhQhodE5l19A-227" style="edgeStyle=orthogonalEdgeStyle;curved=1;orthogonalLoop=1;jettySize=auto;html=1;exitX=0.5;exitY=1;exitDx=0;exitDy=0;dashed=1;" parent="1" source="8ZZjffh4FhQhodE5l19A-204" target="8ZZjffh4FhQhodE5l19A-204" edge="1">
          <mxGeometry relative="1" as="geometry"/>
        </mxCell>
        <mxCell id="3Gr7L3NR13XdELTnvV_C-47" value="Temp域图片保存接口" style="swimlane;html=1;startSize=20;horizontal=1;containerType=tree;" vertex="1" parent="1">
          <mxGeometry x="1880" y="640" width="200" height="470" as="geometry"/>
        </mxCell>
        <mxCell id="3Gr7L3NR13XdELTnvV_C-48" value="返回图片地址" style="rounded=0;whiteSpace=wrap;html=1;" vertex="1" parent="3Gr7L3NR13XdELTnvV_C-47">
          <mxGeometry x="40" y="370" width="120" height="60" as="geometry"/>
        </mxCell>
        <mxCell id="3Gr7L3NR13XdELTnvV_C-49" value="调用保存图片接口" style="rounded=0;whiteSpace=wrap;html=1;" vertex="1" parent="3Gr7L3NR13XdELTnvV_C-47">
          <mxGeometry x="40" y="40" width="120" height="60" as="geometry"/>
        </mxCell>
        <mxCell id="3Gr7L3NR13XdELTnvV_C-55" value="获取原OSS地址" style="rounded=0;whiteSpace=wrap;html=1;" vertex="1" parent="3Gr7L3NR13XdELTnvV_C-47">
          <mxGeometry x="40" y="149.18" width="120" height="60" as="geometry"/>
        </mxCell>
        <mxCell id="3Gr7L3NR13XdELTnvV_C-56" style="edgeStyle=orthogonalEdgeStyle;curved=1;orthogonalLoop=1;jettySize=auto;html=1;exitX=0.5;exitY=1;exitDx=0;exitDy=0;entryX=0.5;entryY=0;entryDx=0;entryDy=0;" edge="1" parent="3Gr7L3NR13XdELTnvV_C-47" source="3Gr7L3NR13XdELTnvV_C-49" target="3Gr7L3NR13XdELTnvV_C-55">
          <mxGeometry relative="1" as="geometry"/>
        </mxCell>
        <mxCell id="3Gr7L3NR13XdELTnvV_C-51" value="OSS服务" style="swimlane;html=1;startSize=20;horizontal=1;containerType=tree;" vertex="1" parent="1">
          <mxGeometry x="2120" y="640" width="200" height="470" as="geometry"/>
        </mxCell>
        <mxCell id="3Gr7L3NR13XdELTnvV_C-67" style="edgeStyle=orthogonalEdgeStyle;curved=1;orthogonalLoop=1;jettySize=auto;html=1;exitX=0.5;exitY=1;exitDx=0;exitDy=0;entryX=0.5;entryY=0;entryDx=0;entryDy=0;" edge="1" parent="3Gr7L3NR13XdELTnvV_C-51" source="3Gr7L3NR13XdELTnvV_C-52" target="3Gr7L3NR13XdELTnvV_C-65">
          <mxGeometry relative="1" as="geometry"/>
        </mxCell>
        <mxCell id="3Gr7L3NR13XdELTnvV_C-52" value="&lt;span style=&quot;white-space: normal&quot;&gt;删除temp域数据&lt;br&gt;&lt;/span&gt;" style="rounded=0;whiteSpace=wrap;html=1;" vertex="1" parent="3Gr7L3NR13XdELTnvV_C-51">
          <mxGeometry x="37.5" y="260" width="120" height="60" as="geometry"/>
        </mxCell>
        <mxCell id="3Gr7L3NR13XdELTnvV_C-62" style="edgeStyle=orthogonalEdgeStyle;curved=1;orthogonalLoop=1;jettySize=auto;html=1;exitX=0.5;exitY=1;exitDx=0;exitDy=0;entryX=0.5;entryY=0;entryDx=0;entryDy=0;" edge="1" parent="3Gr7L3NR13XdELTnvV_C-51" source="3Gr7L3NR13XdELTnvV_C-59" target="3Gr7L3NR13XdELTnvV_C-52">
          <mxGeometry relative="1" as="geometry"/>
        </mxCell>
        <mxCell id="3Gr7L3NR13XdELTnvV_C-59" value="调用移动服务,配置指定地址和文件名" style="rounded=0;whiteSpace=wrap;html=1;" vertex="1" parent="3Gr7L3NR13XdELTnvV_C-51">
          <mxGeometry x="37.5" y="149.17999999999995" width="120" height="60" as="geometry"/>
        </mxCell>
        <mxCell id="3Gr7L3NR13XdELTnvV_C-65" value="获取上传后的地址" style="rounded=0;whiteSpace=wrap;html=1;" vertex="1" parent="3Gr7L3NR13XdELTnvV_C-51">
          <mxGeometry x="37.5" y="370" width="120" height="60" as="geometry"/>
        </mxCell>
        <mxCell id="3Gr7L3NR13XdELTnvV_C-68" style="edgeStyle=orthogonalEdgeStyle;curved=1;orthogonalLoop=1;jettySize=auto;html=1;exitX=0;exitY=0.5;exitDx=0;exitDy=0;entryX=1;entryY=0.5;entryDx=0;entryDy=0;" edge="1" parent="1" source="3Gr7L3NR13XdELTnvV_C-65" target="3Gr7L3NR13XdELTnvV_C-48">
          <mxGeometry relative="1" as="geometry"/>
        </mxCell>
        <mxCell id="3Gr7L3NR13XdELTnvV_C-61" style="edgeStyle=orthogonalEdgeStyle;curved=1;orthogonalLoop=1;jettySize=auto;html=1;exitX=1;exitY=0.5;exitDx=0;exitDy=0;entryX=0;entryY=0.5;entryDx=0;entryDy=0;" edge="1" parent="1" source="3Gr7L3NR13XdELTnvV_C-55" target="3Gr7L3NR13XdELTnvV_C-59">
          <mxGeometry relative="1" as="geometry"/>
        </mxCell>
        <mxCell id="3Gr7L3NR13XdELTnvV_C-107" value="限流" style="edgeStyle=orthogonalEdgeStyle;orthogonalLoop=1;jettySize=auto;html=1;exitX=0.5;exitY=1;exitDx=0;exitDy=0;curved=1;" edge="1" parent="1" source="3Gr7L3NR13XdELTnvV_C-126" target="3Gr7L3NR13XdELTnvV_C-77">
          <mxGeometry relative="1" as="geometry"/>
        </mxCell>
        <mxCell id="3Gr7L3NR13XdELTnvV_C-125" value="MQ" style="swimlane;html=1;startSize=20;horizontal=1;containerType=tree;" vertex="1" parent="1">
          <mxGeometry x="1870.01" y="70" width="160" height="120" as="geometry"/>
        </mxCell>
        <mxCell id="3Gr7L3NR13XdELTnvV_C-126" value="通知文件上传" style="rounded=0;whiteSpace=wrap;html=1;fillColor=#fff2cc;strokeColor=#d6b656;" vertex="1" parent="3Gr7L3NR13XdELTnvV_C-125">
          <mxGeometry x="20" y="40" width="120" height="60" as="geometry"/>
        </mxCell>
        <mxCell id="3Gr7L3NR13XdELTnvV_C-127" value="文件上传系统(user)" style="swimlane;html=1;startSize=20;horizontal=1;containerType=tree;" vertex="1" parent="1">
          <mxGeometry x="1870.01" y="220" width="160" height="370" as="geometry"/>
        </mxCell>
        <mxCell id="3Gr7L3NR13XdELTnvV_C-140" value="获取上传的图片地址" style="rounded=0;whiteSpace=wrap;html=1;" vertex="1" parent="3Gr7L3NR13XdELTnvV_C-127">
          <mxGeometry x="20" y="290" width="120" height="60" as="geometry"/>
        </mxCell>
        <mxCell id="3Gr7L3NR13XdELTnvV_C-77" value="调用保存图片接口" style="rounded=0;whiteSpace=wrap;html=1;" vertex="1" parent="3Gr7L3NR13XdELTnvV_C-127">
          <mxGeometry x="20" y="40" width="120" height="60" as="geometry"/>
        </mxCell>
        <mxCell id="3Gr7L3NR13XdELTnvV_C-78" value="访问图片地址" style="rounded=0;whiteSpace=wrap;html=1;" vertex="1" parent="3Gr7L3NR13XdELTnvV_C-127">
          <mxGeometry x="20" y="130" width="120" height="60" as="geometry"/>
        </mxCell>
        <mxCell id="3Gr7L3NR13XdELTnvV_C-150" style="edgeStyle=orthogonalEdgeStyle;curved=1;orthogonalLoop=1;jettySize=auto;html=1;exitX=0.5;exitY=1;exitDx=0;exitDy=0;entryX=0.5;entryY=0;entryDx=0;entryDy=0;" edge="1" parent="3Gr7L3NR13XdELTnvV_C-127" source="3Gr7L3NR13XdELTnvV_C-86" target="3Gr7L3NR13XdELTnvV_C-140">
          <mxGeometry relative="1" as="geometry"/>
        </mxCell>
        <mxCell id="3Gr7L3NR13XdELTnvV_C-86" value="&lt;span style=&quot;white-space: normal&quot;&gt;通过管道服务接入OSS&lt;br&gt;&lt;/span&gt;" style="rounded=0;whiteSpace=wrap;html=1;fillColor=#d5e8d4;strokeColor=#82b366;" vertex="1" parent="3Gr7L3NR13XdELTnvV_C-127">
          <mxGeometry x="20" y="210" width="120" height="60" as="geometry"/>
        </mxCell>
        <mxCell id="3Gr7L3NR13XdELTnvV_C-79" style="edgeStyle=orthogonalEdgeStyle;curved=1;orthogonalLoop=1;jettySize=auto;html=1;exitX=0.5;exitY=1;exitDx=0;exitDy=0;entryX=0.5;entryY=0;entryDx=0;entryDy=0;" edge="1" parent="3Gr7L3NR13XdELTnvV_C-127" source="3Gr7L3NR13XdELTnvV_C-77" target="3Gr7L3NR13XdELTnvV_C-78">
          <mxGeometry relative="1" as="geometry"/>
        </mxCell>
        <mxCell id="3Gr7L3NR13XdELTnvV_C-100" style="edgeStyle=orthogonalEdgeStyle;curved=1;orthogonalLoop=1;jettySize=auto;html=1;exitX=0.5;exitY=1;exitDx=0;exitDy=0;entryX=0.5;entryY=0;entryDx=0;entryDy=0;" edge="1" parent="3Gr7L3NR13XdELTnvV_C-127" source="3Gr7L3NR13XdELTnvV_C-78" target="3Gr7L3NR13XdELTnvV_C-86">
          <mxGeometry relative="1" as="geometry"/>
        </mxCell>
        <mxCell id="3Gr7L3NR13XdELTnvV_C-106" style="edgeStyle=orthogonalEdgeStyle;orthogonalLoop=1;jettySize=auto;html=1;entryX=0;entryY=0.5;entryDx=0;entryDy=0;curved=1;dashed=1;exitX=1;exitY=0.5;exitDx=0;exitDy=0;" edge="1" parent="1" source="3Gr7L3NR13XdELTnvV_C-136" target="3Gr7L3NR13XdELTnvV_C-126">
          <mxGeometry relative="1" as="geometry">
            <mxPoint x="2000" y="140" as="sourcePoint"/>
          </mxGeometry>
        </mxCell>
        <mxCell id="3Gr7L3NR13XdELTnvV_C-134" value="外域URL更新策略" style="swimlane;html=1;startSize=20;horizontal=1;containerType=tree;" vertex="1" parent="1">
          <mxGeometry x="1560" y="70" width="300" height="520" as="geometry"/>
        </mxCell>
        <mxCell id="3Gr7L3NR13XdELTnvV_C-137" style="edgeStyle=orthogonalEdgeStyle;curved=1;orthogonalLoop=1;jettySize=auto;html=1;exitX=0.5;exitY=1;exitDx=0;exitDy=0;entryX=0.5;entryY=0;entryDx=0;entryDy=0;" edge="1" parent="3Gr7L3NR13XdELTnvV_C-134" source="3Gr7L3NR13XdELTnvV_C-135" target="3Gr7L3NR13XdELTnvV_C-136">
          <mxGeometry relative="1" as="geometry"/>
        </mxCell>
        <mxCell id="3Gr7L3NR13XdELTnvV_C-135" value="将原图片url保存至指定指端" style="rounded=0;whiteSpace=wrap;html=1;" vertex="1" parent="3Gr7L3NR13XdELTnvV_C-134">
          <mxGeometry x="100" y="60" width="120" height="60" as="geometry"/>
        </mxCell>
        <mxCell id="3Gr7L3NR13XdELTnvV_C-136" value="发送文件上传消息" style="rounded=0;whiteSpace=wrap;html=1;" vertex="1" parent="3Gr7L3NR13XdELTnvV_C-134">
          <mxGeometry x="100" y="190" width="120" height="60" as="geometry"/>
        </mxCell>
        <mxCell id="3Gr7L3NR13XdELTnvV_C-142" value="更新指定字段图片地址" style="rounded=0;whiteSpace=wrap;html=1;" vertex="1" parent="3Gr7L3NR13XdELTnvV_C-134">
          <mxGeometry x="100" y="440" width="120" height="60" as="geometry"/>
        </mxCell>
        <mxCell id="3Gr7L3NR13XdELTnvV_C-138" value="结束" style="ellipse;whiteSpace=wrap;html=1;aspect=fixed;" vertex="1" parent="1">
          <mxGeometry x="1440" y="250" width="80" height="80" as="geometry"/>
        </mxCell>
        <mxCell id="3Gr7L3NR13XdELTnvV_C-139" style="edgeStyle=orthogonalEdgeStyle;curved=1;orthogonalLoop=1;jettySize=auto;html=1;exitX=0;exitY=0.5;exitDx=0;exitDy=0;entryX=1;entryY=0.5;entryDx=0;entryDy=0;" edge="1" parent="1" source="3Gr7L3NR13XdELTnvV_C-136" target="3Gr7L3NR13XdELTnvV_C-138">
          <mxGeometry relative="1" as="geometry"/>
        </mxCell>
        <mxCell id="3Gr7L3NR13XdELTnvV_C-143" style="edgeStyle=orthogonalEdgeStyle;curved=1;orthogonalLoop=1;jettySize=auto;html=1;exitX=0;exitY=0.5;exitDx=0;exitDy=0;entryX=1;entryY=0.5;entryDx=0;entryDy=0;" edge="1" parent="1" source="3Gr7L3NR13XdELTnvV_C-140" target="3Gr7L3NR13XdELTnvV_C-142">
          <mxGeometry relative="1" as="geometry"/>
        </mxCell>
      </root>
    </mxGraphModel>
  </diagram>
</mxfile>
